<?xml version="1.0" encoding="UTF-8" standalone="no" ?>
<!DOCTYPE svg PUBLIC "-//W3C//DTD SVG 1.1//EN" "http://www.w3.org/Graphics/SVG/1.1/DTD/svg11.dtd">
<svg xmlns="http://www.w3.org/2000/svg" xmlns:xlink="http://www.w3.org/1999/xlink" version="1.1" width="1280" height="1024" viewBox="0 0 1280 1024" xml:space="preserve">
<desc>Created with Fabric.js 5.3.0</desc>
<defs>
</defs>
<g transform="matrix(1 0 0 1 640 512)" id="background-logo"  >
<rect style="stroke: none; stroke-width: 0; stroke-dasharray: none; stroke-linecap: butt; stroke-dashoffset: 0; stroke-linejoin: miter; stroke-miterlimit: 4; fill: rgb(255,255,255); fill-opacity: 0; fill-rule: nonzero; opacity: 1;"  paint-order="stroke"  x="-640" y="-512" rx="0" ry="0" width="1280" height="1024" />
</g>
<g transform="matrix(1.0578884381436735 0 0 1.0578884381436735 217.31214663143993 512.5903844816798)" id="logo-logo"  >
<g style=""  paint-order="stroke"   >
		<g transform="matrix(1.074701185166162 0 0 1.074701185166162 -5.684342e-14 -30.15074174983667)"  >
<path style="stroke: none; stroke-width: 1; stroke-dasharray: none; stroke-linecap: butt; stroke-dashoffset: 0; stroke-linejoin: miter; stroke-miterlimit: 4; fill: rgb(36,116,36); fill-rule: nonzero; opacity: 1;"  paint-order="stroke"  transform=" translate(-250, -211.735)" d="M 397.79 156.78 L 332.59000000000003 156.78 L 270.87 156.78 L 334.33 266.69 L 397.79 156.78 z M 167.41 156.78 L 102.21 156.78 L 165.67 266.69 L 229.13 156.78 L 167.41 156.78 z" stroke-linecap="round" />
</g>
		<g transform="matrix(1.074701185166162 0 0 1.074701185166162 0 0)"  >
<polygon style="stroke: none; stroke-width: 1; stroke-dasharray: none; stroke-linecap: butt; stroke-dashoffset: 0; stroke-linejoin: miter; stroke-miterlimit: 4; fill: rgb(36,116,36); fill-rule: nonzero; opacity: 1;"  paint-order="stroke"  points="0,-83.01000000000002 -95.85,83.00999999999999 -71.56,83.00999999999999 -19.75999999999999,-6.710000000000008 32.02999999999997,83.00999999999999 95.85000000000002,83.00999999999999 " />
</g>
		<g transform="matrix(1.074701185166162 0 0 1.074701185166162 -23.777763721801477 64.6701438173738)"  >
<path style="stroke: none; stroke-width: 1; stroke-dasharray: none; stroke-linecap: butt; stroke-dashoffset: 0; stroke-linejoin: miter; stroke-miterlimit: 4; fill: rgb(36,116,36); fill-rule: nonzero; opacity: 1;"  paint-order="stroke"  transform=" translate(-227.875, -299.96500000000003)" d="M 211.86 296.52 L 226.42000000000002 296.52 L 226.42000000000002 322.37 L 211.86 322.37 L 211.86 296.52 z M 229.33 322.37 L 243.89000000000001 322.37 L 243.89000000000001 296.52 L 229.33 296.52 L 229.33 322.37 z M 227.87 277.56 C 219.03 277.56 211.86 284.73 211.86 293.57 L 243.89000000000001 293.57 C 243.88 284.73 236.72 277.56 227.87 277.56 z" stroke-linecap="round" />
</g>
</g>
</g>
<g transform="matrix(1.9211538461538462 0 0 1.9211538461538462 804.1876024288007 481.34656663472094)" id="text-logo"  >
<g style=""  paint-order="stroke"   >
		<g transform="matrix(1 0 0 1 0 0)" id="text-logo-path-0"  >
<path style="stroke: none; stroke-width: 0; stroke-dasharray: none; stroke-linecap: butt; stroke-dashoffset: 0; stroke-linejoin: miter; stroke-miterlimit: 4; fill: rgb(24,124,24); fill-rule: nonzero; opacity: 1;"  paint-order="stroke"  transform=" translate(-204.765, 14.89)" d="M 2.29 -24.15 L 2.29 0 L 8.74 0 L 8.74 -9.97 L 13.39 -9.97 L 13.39 0 L 19.83 0 L 19.83 -24.15 C 19.83 -28.21 17.92 -30.23 14.13 -30.23 L 8 -30.23 C 4.2 -30.21 2.29 -28.19 2.29 -24.15 Z M 8.74 -14.96 L 8.74 -24.93 C 8.74 -25.4 9.14 -25.85 9.61 -25.85 L 12.51 -25.85 C 12.98 -25.85 13.39 -25.4 13.39 -24.93 L 13.39 -14.96 Z M 36.09 0 L 49.68 0 L 49.68 -5.35 L 42.54 -5.35 L 42.54 -12.47 L 49.21 -12.47 L 49.21 -17.52 L 42.54 -17.52 L 42.54 -24.53 L 49.68 -24.53 L 49.68 -29.76 L 36.09 -29.76 Z M 63 0 L 69.76 0 L 72.91 -10.4 L 76.03 0 L 82.75 0 L 77.4 -14.91 L 82.14 -29.76 L 75.85 -29.76 L 72.91 -20.15 L 69.97 -29.76 L 63.7 -29.76 L 68.35 -14.91 Z M 117.85 0 L 124.3 0 L 124.3 -11.68 L 129.49 -11.68 C 133.28 -11.7 135.19 -13.72 135.19 -17.77 L 135.19 -23.7 C 135.19 -27.74 133.28 -29.76 129.49 -29.76 L 117.85 -29.76 Z M 127.89 -16.1 L 124.3 -16.1 L 124.3 -25.34 L 127.89 -25.34 C 128.36 -25.34 128.77 -24.89 128.77 -24.42 L 128.77 -17.03 C 128.77 -16.55 128.36 -16.1 127.89 -16.1 Z M 149.9 0 L 156.35 0 L 156.35 -12.2 L 159.43 -12.2 C 160.01 -12.2 160.3 -11.88 160.3 -11.28 L 160.3 0 L 166.75 0 L 166.75 -11.77 C 166.75 -13.72 165.99 -14.98 164.46 -15.54 C 166.19 -16.22 167.06 -17.79 167.06 -20.24 L 167.06 -23.7 C 167.06 -27.74 165.16 -29.76 161.36 -29.76 L 149.9 -29.76 Z M 159.76 -16.69 L 156.35 -16.69 L 156.35 -25.38 L 159.76 -25.38 C 160.24 -25.38 160.64 -24.95 160.64 -24.48 L 160.64 -17.61 C 160.64 -17.14 160.24 -16.69 159.76 -16.69 Z M 182.7 -24.15 L 182.7 -5.62 C 182.7 -1.57 184.61 0.45 188.4 0.45 L 194.53 0.45 C 198.33 0.45 200.24 -1.57 200.24 -5.62 L 200.24 -24.15 C 200.24 -28.19 198.33 -30.21 194.53 -30.23 L 188.4 -30.23 C 184.61 -30.21 182.7 -28.19 182.7 -24.15 Z M 189.14 -4.87 L 189.14 -24.93 C 189.14 -25.4 189.55 -25.85 190.02 -25.85 L 192.92 -25.85 C 193.39 -25.85 193.79 -25.4 193.79 -24.93 L 193.79 -4.87 C 193.79 -4.4 193.39 -3.95 192.92 -3.95 L 190.02 -3.95 C 189.55 -3.95 189.14 -4.4 189.14 -4.87 Z M 216.41 0 L 222.86 0 L 222.86 -11.68 L 228.05 -11.68 C 231.84 -11.7 233.75 -13.72 233.75 -17.77 L 233.75 -23.7 C 233.75 -27.74 231.84 -29.76 228.05 -29.76 L 216.41 -29.76 Z M 226.45 -16.1 L 222.86 -16.1 L 222.86 -25.34 L 226.45 -25.34 C 226.92 -25.34 227.33 -24.89 227.33 -24.42 L 227.33 -17.03 C 227.33 -16.55 226.92 -16.1 226.45 -16.1 Z M 248.46 0 L 262.05 0 L 262.05 -5.35 L 254.91 -5.35 L 254.91 -12.47 L 261.58 -12.47 L 261.58 -17.52 L 254.91 -17.52 L 254.91 -24.53 L 262.05 -24.53 L 262.05 -29.76 L 248.46 -29.76 Z M 277.26 0 L 283.7 0 L 283.7 -12.2 L 286.78 -12.2 C 287.37 -12.2 287.66 -11.88 287.66 -11.28 L 287.66 0 L 294.1 0 L 294.1 -11.77 C 294.1 -13.72 293.34 -14.98 291.81 -15.54 C 293.54 -16.22 294.42 -17.79 294.42 -20.24 L 294.42 -23.7 C 294.42 -27.74 292.51 -29.76 288.71 -29.76 L 277.26 -29.76 Z M 287.12 -16.69 L 283.7 -16.69 L 283.7 -25.38 L 287.12 -25.38 C 287.59 -25.38 287.99 -24.95 287.99 -24.48 L 287.99 -17.61 C 287.99 -17.14 287.59 -16.69 287.12 -16.69 Z M 308.37 -24.28 L 313.2 -24.28 L 313.2 0 L 319.62 0 L 319.62 -24.28 L 324.45 -24.28 L 324.45 -29.76 L 308.37 -29.76 Z M 338.89 0 L 345.34 0 L 345.34 -29.76 L 338.89 -29.76 Z M 361.6 0 L 375.19 0 L 375.19 -5.35 L 368.04 -5.35 L 368.04 -12.47 L 374.72 -12.47 L 374.72 -17.52 L 368.04 -17.52 L 368.04 -24.53 L 375.19 -24.53 L 375.19 -29.76 L 361.6 -29.76 Z M 390.39 -5.62 C 390.39 -1.57 392.3 0.45 396.1 0.45 L 401.53 0.45 C 405.33 0.45 407.24 -1.57 407.24 -5.62 L 407.24 -12.02 C 407.24 -15.99 405.33 -18.01 401.53 -18.08 L 397.4 -18.08 C 396.88 -18.08 396.53 -18.53 396.53 -19 L 396.53 -24.28 C 396.53 -24.8 396.93 -25.2 397.4 -25.2 L 399.92 -25.2 C 400.43 -25.2 400.79 -24.75 400.79 -24.28 L 400.79 -21.94 L 406.92 -21.94 L 406.92 -24.15 C 406.92 -28.21 405.02 -30.23 401.22 -30.23 L 396.1 -30.23 C 392.3 -30.21 390.39 -28.19 390.39 -24.15 L 390.39 -18.22 C 390.39 -14.17 392.3 -12.15 396.1 -12.15 L 400.25 -12.15 C 400.73 -12.15 401.13 -11.7 401.13 -11.23 L 401.13 -5.39 C 401.13 -4.87 400.73 -4.47 400.25 -4.47 L 397.4 -4.47 C 396.88 -4.47 396.53 -4.92 396.53 -5.39 L 396.53 -8.69 L 390.39 -8.69 Z" stroke-linecap="round" />
</g>
</g>
</g>
<g transform="matrix(1.9211538461538462 0 0 1.9211538461538462 835.9096569170708 561.6051153672931)" id="tagline-3e5d4c04-a756-4bc9-9b3f-ac202344fafb-logo"  >
<g style=""  paint-order="stroke"   >
		<g transform="matrix(1 0 0 1 0 0)" id="tagline-3e5d4c04-a756-4bc9-9b3f-ac202344fafb-logo-path-0"  >
<path style="stroke: none; stroke-width: 0; stroke-dasharray: none; stroke-linecap: butt; stroke-dashoffset: 0; stroke-linejoin: miter; stroke-miterlimit: 4; fill: rgb(255,222,89); fill-rule: nonzero; opacity: 1;"  paint-order="stroke"  transform=" translate(-124.94500000000001, 10.15)" d="M 3.74 0 L 7.6 0 L 8.9 -10.15 L 10.21 0 L 14.07 0 L 17.55 -20.3 L 14.36 -20.3 L 12.18 -7.69 L 10.21 -20.3 L 7.6 -20.3 L 5.63 -7.69 L 3.45 -20.3 L 0.26 -20.3 Z M 34.1 -20.3 L 34.1 0 L 43.67 0 L 43.67 -3.19 L 37.29 -3.19 L 37.29 -8.85 L 43.09 -8.85 L 43.09 -12.04 L 37.29 -12.04 L 37.29 -17.11 L 43.67 -17.11 L 43.67 -20.3 Z M 87.46 -20.3 L 81.75 -20.3 L 81.75 0 L 87.46 0 C 90.89 0 93.15 -2.38 93.15 -5.68 L 93.15 -14.62 C 93.15 -17.92 90.89 -20.3 87.46 -20.3 Z M 84.94 -3.19 L 84.94 -17.11 L 87.46 -17.11 C 89.29 -17.11 89.96 -16.41 89.96 -14.62 L 89.96 -5.68 C 89.96 -3.89 89.29 -3.19 87.46 -3.19 Z M 110.29 -20.3 L 110.29 0 L 119.86 0 L 119.86 -3.19 L 113.48 -3.19 L 113.48 -8.85 L 119.28 -8.85 L 119.28 -12.04 L 113.48 -12.04 L 113.48 -17.11 L 119.86 -17.11 L 119.86 -20.3 Z M 137.29 -20.3 L 137.29 0 L 146.86 0 L 146.86 -3.19 L 140.48 -3.19 L 140.48 -20.3 Z M 163.59 -20.3 L 163.59 0 L 166.78 0 L 166.78 -20.3 Z M 186.76 0 L 191.2 0 L 194.68 -20.3 L 191.49 -20.3 L 188.99 -5.66 L 186.47 -20.3 L 183.28 -20.3 Z M 211.24 -20.3 L 211.24 0 L 220.81 0 L 220.81 -3.19 L 214.43 -3.19 L 214.43 -8.85 L 220.23 -8.85 L 220.23 -12.04 L 214.43 -12.04 L 214.43 -17.11 L 220.81 -17.11 L 220.81 -20.3 Z M 243.92 -20.3 L 238.24 -20.3 L 238.24 0 L 241.43 0 L 241.43 -8.87 L 243.92 -8.87 C 245.75 -8.87 246.44 -8.21 246.44 -6.35 L 246.44 0 L 249.63 0 L 249.63 -6.35 C 249.63 -8.06 249.05 -9.48 248.04 -10.47 C 249.05 -11.48 249.63 -12.93 249.63 -14.59 C 249.63 -18.04 247.25 -20.3 243.92 -20.3 Z M 241.43 -12.06 L 241.43 -17.11 L 243.92 -17.11 C 245.75 -17.11 246.44 -16.44 246.44 -14.59 C 246.44 -12.79 245.75 -12.06 243.92 -12.06 Z" stroke-linecap="round" />
</g>
</g>
</g>
</svg>